# This file uses centimeters as units for non-parametric coordinates.

mtllib CampFire.mtl
g default
v -0.593267 0.130976 0.832183
v -0.525908 0.419081 1.207494
v -0.297881 0.330351 1.309833
v -0.144996 0.130976 1.224873
v -0.182378 -0.028910 1.016591
v -0.381877 -0.028910 0.841828
v 0.900288 2.002800 -0.872768
v 0.836189 2.202175 -0.710031
v 0.967648 2.290905 -0.497457
v 1.195674 2.202175 -0.395118
v 1.348559 2.002800 -0.480078
v 1.311177 1.842914 -0.688360
v 1.111678 1.842914 -0.863123
v -0.657367 0.330351 0.994920
vt 0.534769 0.003918
vt 0.343750 0.156250
vt 0.402580 0.278411
vt 0.534769 0.308582
vt 0.640776 0.224044
vt 0.640776 0.088456
vt 0.375000 0.312500
vt 0.410714 0.312500
vt 0.446429 0.312500
vt 0.482143 0.312500
vt 0.517857 0.312500
vt 0.553571 0.312500
vt 0.589286 0.312500
vt 0.625000 0.312500
vt 0.375000 0.688440
vt 0.410714 0.688440
vt 0.446429 0.688440
vt 0.482143 0.688440
vt 0.517857 0.688440
vt 0.553571 0.688440
vt 0.589286 0.688440
vt 0.625000 0.688440
vt 0.640776 0.775956
vt 0.534769 0.691418
vt 0.402580 0.721589
vt 0.343750 0.843750
vt 0.402580 0.965911
vt 0.534769 0.996082
vt 0.640776 0.911544
vt 0.402580 0.034089
vn -0.326487 -0.480750 -0.813810
vn -0.326487 -0.480750 -0.813810
vn -0.326487 -0.480750 -0.813810
vn -0.326487 -0.480750 -0.813810
vn -0.826707 0.171577 -0.535833
vn -0.826707 0.171577 -0.535833
vn -0.826707 0.171577 -0.535833
vn -0.826707 0.171577 -0.535833
vn -0.704399 0.694703 0.145636
vn -0.704399 0.694703 0.145636
vn -0.704399 0.694703 0.145636
vn -0.704399 0.694703 0.145636
vn -0.051665 0.694703 0.717439
vn -0.051665 0.694703 0.717439
vn -0.051665 0.694703 0.717439
vn -0.051665 0.694703 0.717439
vn 0.639974 0.171578 0.748995
vn 0.639974 0.171578 0.748995
vn 0.639974 0.171578 0.748995
vn 0.639974 0.171578 0.748995
vn 0.849699 -0.480749 0.216543
vn 0.849699 -0.480749 0.216543
vn 0.849699 -0.480749 0.216543
vn 0.849699 -0.480749 0.216543
vn 0.419584 -0.771062 -0.478971
vn 0.419584 -0.771062 -0.478971
vn 0.419584 -0.771062 -0.478971
vn 0.419584 -0.771062 -0.478971
vn -0.508079 -0.636760 0.579993
vn -0.508079 -0.636760 0.579993
vn -0.508079 -0.636760 0.579993
vn -0.508080 -0.636760 0.579993
vn -0.508080 -0.636760 0.579993
vn -0.508080 -0.636760 0.579993
vn -0.508080 -0.636760 0.579993
vn -0.508080 -0.636760 0.579993
vn -0.508080 -0.636760 0.579993
vn -0.508080 -0.636760 0.579993
vn -0.508080 -0.636760 0.579993
vn -0.508080 -0.636760 0.579993
vn -0.508080 -0.636760 0.579993
vn -0.508080 -0.636760 0.579993
vn -0.508080 -0.636760 0.579993
vn 0.508080 0.636760 -0.579993
vn 0.508080 0.636760 -0.579993
vn 0.508080 0.636760 -0.579993
vn 0.508080 0.636760 -0.579993
vn 0.508080 0.636760 -0.579993
vn 0.508080 0.636760 -0.579993
vn 0.508080 0.636760 -0.579993
vn 0.508080 0.636760 -0.579993
vn 0.508080 0.636760 -0.579993
vn 0.508080 0.636760 -0.579993
vn 0.508080 0.636760 -0.579993
vn 0.508080 0.636760 -0.579993
vn 0.508080 0.636760 -0.579993
vn 0.508080 0.636760 -0.579993
vn 0.508080 0.636760 -0.579993
s off
g pCylinder1
usemtl initialShadingGroup
f 6/7/1 1/8/2 7/16/3 13/15/4
f 1/8/5 14/9/6 8/17/7 7/16/8
f 14/9/9 2/10/10 9/18/11 8/17/12
f 2/10/13 3/11/14 10/19/15 9/18/16
f 3/11/17 4/12/18 11/20/19 10/19/20
f 4/12/21 5/13/22 12/21/23 11/20/24
f 5/13/25 6/14/26 13/22/27 12/21/28
f 1/1/29 6/6/30 14/30/31
f 3/3/32 2/2/33 14/30/34
f 4/4/35 3/3/36 14/30/37
f 5/5/38 4/4/39 14/30/40
f 6/6/41 5/5/42 14/30/43
f 13/29/44 7/28/45 8/27/46
f 9/26/47 10/25/48 8/27/49
f 10/25/50 11/24/51 8/27/52
f 11/24/53 12/23/54 8/27/55
f 12/23/56 13/29/57 8/27/58
g default
v -1.774435 0.290890 -0.558990
v -2.007655 0.594711 -0.273155
v -1.975432 0.486500 -0.033167
v -1.845798 0.264508 0.032080
v -1.716371 0.095900 -0.126546
v -1.684611 0.107641 -0.389597
v 0.695817 1.841414 -0.191539
v 0.552049 2.058180 -0.139718
v 0.462597 2.145234 0.094296
v 0.494820 2.037023 0.334284
v 0.624454 1.815032 0.399531
v 0.753881 1.646424 0.240904
v 0.785641 1.658165 -0.022146
v -1.918203 0.507656 -0.507168
vt 0.534769 0.003918
vt 0.343750 0.156250
vt 0.402580 0.278411
vt 0.534769 0.308582
vt 0.640776 0.224044
vt 0.640776 0.088456
vt 0.375000 0.312500
vt 0.410714 0.312500
vt 0.446429 0.312500
vt 0.482143 0.312500
vt 0.517857 0.312500
vt 0.553571 0.312500
vt 0.589286 0.312500
vt 0.625000 0.312500
vt 0.375000 0.688440
vt 0.410714 0.688440
vt 0.446429 0.688440
vt 0.482143 0.688440
vt 0.517857 0.688440
vt 0.553571 0.688440
vt 0.589286 0.688440
vt 0.625000 0.688440
vt 0.640776 0.775956
vt 0.534769 0.691418
vt 0.402580 0.721589
vt 0.343750 0.843750
vt 0.402580 0.965911
vt 0.534769 0.996082
vt 0.640776 0.911544
vt 0.402580 0.034089
vn 0.423246 -0.494374 -0.759247
vn 0.423246 -0.494374 -0.759247
vn 0.423246 -0.494374 -0.759247
vn 0.423246 -0.494374 -0.759247
vn -0.000898 0.231951 -0.972727
vn -0.000898 0.231951 -0.972727
vn -0.000898 0.231951 -0.972727
vn -0.000898 0.231951 -0.972727
vn -0.424365 0.783613 -0.453723
vn -0.424365 0.783613 -0.453723
vn -0.424365 0.783613 -0.453723
vn -0.424365 0.783613 -0.453723
vn -0.528278 0.745198 0.406943
vn -0.528278 0.745198 0.406943
vn -0.528278 0.745198 0.406943
vn -0.528278 0.745198 0.406943
vn -0.234386 0.145634 0.961173
vn -0.234386 0.145634 0.961173
vn -0.234386 0.145634 0.961173
vn -0.234386 0.145634 0.961173
vn 0.236003 -0.563596 0.791620
vn 0.236003 -0.563596 0.791620
vn 0.236003 -0.563596 0.791620
vn 0.236003 -0.563596 0.791620
vn 0.528677 -0.848426 0.025961
vn 0.528677 -0.848426 0.025961
vn 0.528677 -0.848426 0.025961
vn 0.528677 -0.848426 0.025961
vn -0.840334 -0.527460 -0.124999
vn -0.840334 -0.527460 -0.124999
vn -0.840334 -0.527460 -0.124999
vn -0.840334 -0.527460 -0.125000
vn -0.840334 -0.527460 -0.125000
vn -0.840334 -0.527460 -0.125000
vn -0.840334 -0.527460 -0.125000
vn -0.840334 -0.527460 -0.125000
vn -0.840334 -0.527460 -0.125000
vn -0.840334 -0.527460 -0.125000
vn -0.840334 -0.527460 -0.125000
vn -0.840334 -0.527460 -0.125000
vn -0.840334 -0.527460 -0.125000
vn -0.840334 -0.527460 -0.125000
vn -0.840334 -0.527460 -0.125000
vn 0.840334 0.527460 0.125000
vn 0.840334 0.527460 0.125000
vn 0.840334 0.527460 0.125000
vn 0.840334 0.527460 0.125000
vn 0.840334 0.527460 0.125000
vn 0.840334 0.527460 0.125000
vn 0.840334 0.527460 0.125000
vn 0.840334 0.527460 0.125000
vn 0.840334 0.527460 0.125000
vn 0.840334 0.527460 0.125000
vn 0.840334 0.527460 0.125000
vn 0.840334 0.527460 0.125000
vn 0.840334 0.527460 0.125000
vn 0.840334 0.527460 0.125000
vn 0.840334 0.527460 0.125000
s off
g pCylinder2
usemtl initialShadingGroup
f 20/37/59 15/38/60 21/46/61 27/45/62
f 15/38/63 28/39/64 22/47/65 21/46/66
f 28/39/67 16/40/68 23/48/69 22/47/70
f 16/40/71 17/41/72 24/49/73 23/48/74
f 17/41/75 18/42/76 25/50/77 24/49/78
f 18/42/79 19/43/80 26/51/81 25/50/82
f 19/43/83 20/44/84 27/52/85 26/51/86
f 15/31/87 20/36/88 28/60/89
f 17/33/90 16/32/91 28/60/92
f 18/34/93 17/33/94 28/60/95
f 19/35/96 18/34/97 28/60/98
f 20/36/99 19/35/100 28/60/101
f 27/59/102 21/58/103 22/57/104
f 23/56/105 24/55/106 22/57/107
f 24/55/108 25/54/109 22/57/110
f 25/54/111 26/53/112 22/57/113
f 26/53/114 27/59/115 22/57/116
g default
v 1.612489 0.273022 1.781871
v 1.948313 0.605114 1.854929
v 2.136734 0.537808 1.680832
v 2.138379 0.336038 1.508702
v 1.952011 0.151741 1.468158
v 1.717968 0.123697 1.589729
v 0.354120 1.991284 -0.244302
v 0.456634 2.205535 -0.126277
v 0.689944 2.323375 -0.171243
v 0.878365 2.256069 -0.345341
v 0.880011 2.054299 -0.517470
v 0.693642 1.870003 -0.558015
v 0.459599 1.841958 -0.436443
v 1.715002 0.487273 1.899896
vt 0.534769 0.003918
vt 0.343750 0.156250
vt 0.402580 0.278411
vt 0.534769 0.308582
vt 0.640776 0.224044
vt 0.640776 0.088456
vt 0.375000 0.312500
vt 0.410714 0.312500
vt 0.446429 0.312500
vt 0.482143 0.312500
vt 0.517857 0.312500
vt 0.553571 0.312500
vt 0.589286 0.312500
vt 0.625000 0.312500
vt 0.375000 0.688440
vt 0.410714 0.688440
vt 0.446429 0.688440
vt 0.482143 0.688440
vt 0.517857 0.688440
vt 0.553571 0.688440
vt 0.589286 0.688440
vt 0.625000 0.688440
vt 0.640776 0.775956
vt 0.534769 0.691418
vt 0.402580 0.721589
vt 0.343750 0.843750
vt 0.402580 0.965911
vt 0.534769 0.996082
vt 0.640776 0.911544
vt 0.402580 0.034089
vn -0.811534 -0.584243 0.008551
vn -0.811534 -0.584243 0.008551
vn -0.811534 -0.584243 0.008551
vn -0.811534 -0.584243 0.008551
vn -0.816918 0.075920 0.571735
vn -0.816918 0.075920 0.571735
vn -0.816918 0.075920 0.571735
vn -0.816918 0.075920 0.571735
vn -0.207147 0.678913 0.704391
vn -0.207147 0.678913 0.704391
vn -0.207147 0.678913 0.704391
vn -0.207147 0.678913 0.704391
vn 0.558611 0.770672 0.306626
vn 0.558611 0.770672 0.306626
vn 0.558611 0.770672 0.306626
vn 0.558611 0.770672 0.306626
vn 0.903722 0.282098 -0.322035
vn 0.903722 0.282098 -0.322035
vn 0.903722 0.282098 -0.322035
vn 0.903722 0.282098 -0.322035
vn 0.568313 -0.418901 -0.708197
vn 0.568313 -0.418901 -0.708197
vn 0.568313 -0.418901 -0.708197
vn 0.568313 -0.418901 -0.708197
vn -0.195048 -0.804459 -0.561072
vn -0.195048 -0.804459 -0.561072
vn -0.195048 -0.804459 -0.561072
vn -0.195048 -0.804459 -0.561072
vn 0.428075 -0.584521 0.689266
vn 0.428075 -0.584521 0.689266
vn 0.428075 -0.584521 0.689266
vn 0.428074 -0.584521 0.689266
vn 0.428074 -0.584521 0.689266
vn 0.428074 -0.584521 0.689266
vn 0.428074 -0.584521 0.689266
vn 0.428074 -0.584521 0.689266
vn 0.428074 -0.584521 0.689266
vn 0.428074 -0.584521 0.689266
vn 0.428074 -0.584521 0.689266
vn 0.428074 -0.584521 0.689266
vn 0.428074 -0.584521 0.689266
vn 0.428074 -0.584521 0.689266
vn 0.428074 -0.584521 0.689266
vn -0.428074 0.584521 -0.689266
vn -0.428074 0.584521 -0.689266
vn -0.428074 0.584521 -0.689266
vn -0.428074 0.584521 -0.689266
vn -0.428074 0.584521 -0.689266
vn -0.428074 0.584521 -0.689266
vn -0.428074 0.584521 -0.689266
vn -0.428074 0.584521 -0.689266
vn -0.428074 0.584521 -0.689266
vn -0.428074 0.584521 -0.689266
vn -0.428074 0.584521 -0.689266
vn -0.428074 0.584521 -0.689266
vn -0.428074 0.584521 -0.689266
vn -0.428074 0.584521 -0.689266
vn -0.428074 0.584521 -0.689266
s off
g pCylinder3
usemtl initialShadingGroup
f 34/67/117 29/68/118 35/76/119 41/75/120
f 29/68/121 42/69/122 36/77/123 35/76/124
f 42/69/125 30/70/126 37/78/127 36/77/128
f 30/70/129 31/71/130 38/79/131 37/78/132
f 31/71/133 32/72/134 39/80/135 38/79/136
f 32/72/137 33/73/138 40/81/139 39/80/140
f 33/73/141 34/74/142 41/82/143 40/81/144
f 29/61/145 34/66/146 42/90/147
f 31/63/148 30/62/149 42/90/150
f 32/64/151 31/63/152 42/90/153
f 33/65/154 32/64/155 42/90/156
f 34/66/157 33/65/158 42/90/159
f 41/89/160 35/88/161 36/87/162
f 37/86/163 38/85/164 36/87/165
f 38/85/166 39/84/167 36/87/168
f 39/84/169 40/83/170 36/87/171
f 40/83/172 41/89/173 36/87/174
g default
v 1.624406 0.064009 -1.206530
v 1.708158 0.374460 -1.560091
v 1.520862 0.313545 -1.737720
v 1.333390 0.126531 -1.722818
v 1.286911 -0.045757 -1.526606
v 1.416426 -0.073582 -1.296837
v -0.199725 1.993159 0.055299
v -0.069892 2.192557 -0.061861
v -0.115974 2.303611 -0.298263
v -0.303269 2.242695 -0.475892
v -0.490742 2.055681 -0.460989
v -0.537220 1.883393 -0.264777
v -0.407706 1.855569 -0.035008
v 1.754239 0.263406 -1.323690
vt 0.534769 0.003918
vt 0.343750 0.156250
vt 0.402580 0.278411
vt 0.534769 0.308582
vt 0.640776 0.224044
vt 0.640776 0.088456
vt 0.375000 0.312500
vt 0.410714 0.312500
vt 0.446429 0.312500
vt 0.482143 0.312500
vt 0.517857 0.312500
vt 0.553571 0.312500
vt 0.589286 0.312500
vt 0.625000 0.312500
vt 0.375000 0.688440
vt 0.410714 0.688440
vt 0.446429 0.688440
vt 0.482143 0.688440
vt 0.517857 0.688440
vt 0.553571 0.688440
vt 0.589286 0.688440
vt 0.625000 0.688440
vt 0.640776 0.775956
vt 0.534769 0.691418
vt 0.402580 0.721589
vt 0.343750 0.843750
vt 0.402580 0.965911
vt 0.534769 0.996082
vt 0.640776 0.911544
vt 0.402580 0.034089
vn -0.000768 -0.547898 0.836545
vn -0.000768 -0.547898 0.836545
vn -0.000768 -0.547898 0.836545
vn -0.000768 -0.547898 0.836545
vn 0.612616 0.063987 0.787786
vn 0.612616 0.063987 0.787786
vn 0.612616 0.063987 0.787786
vn 0.612616 0.063987 0.787786
vn 0.764688 0.627688 0.145809
vn 0.764688 0.627688 0.145809
vn 0.764688 0.627688 0.145809
vn 0.764688 0.627688 0.145809
vn 0.340934 0.718728 -0.605966
vn 0.340934 0.718728 -0.605966
vn 0.340934 0.718728 -0.605966
vn 0.340934 0.718728 -0.605966
vn -0.339550 0.268550 -0.901436
vn -0.339550 0.268550 -0.901436
vn -0.339550 0.268550 -0.901436
vn -0.339550 0.268550 -0.901436
vn -0.764346 -0.383851 -0.518106
vn -0.764346 -0.383851 -0.518106
vn -0.764346 -0.383851 -0.518106
vn -0.764346 -0.383851 -0.518106
vn -0.613574 -0.747205 0.255368
vn -0.613574 -0.747205 0.255368
vn -0.613574 -0.747205 0.255368
vn -0.613574 -0.747205 0.255368
vn 0.620535 -0.656261 -0.429252
vn 0.620535 -0.656261 -0.429252
vn 0.620535 -0.656261 -0.429252
vn 0.620536 -0.656261 -0.429251
vn 0.620536 -0.656261 -0.429251
vn 0.620536 -0.656261 -0.429251
vn 0.620536 -0.656261 -0.429251
vn 0.620536 -0.656261 -0.429251
vn 0.620536 -0.656261 -0.429251
vn 0.620536 -0.656261 -0.429251
vn 0.620536 -0.656261 -0.429251
vn 0.620536 -0.656261 -0.429251
vn 0.620536 -0.656261 -0.429251
vn 0.620536 -0.656261 -0.429251
vn 0.620536 -0.656261 -0.429251
vn -0.620536 0.656261 0.429251
vn -0.620536 0.656261 0.429251
vn -0.620536 0.656261 0.429251
vn -0.620536 0.656261 0.429251
vn -0.620536 0.656261 0.429251
vn -0.620536 0.656261 0.429251
vn -0.620536 0.656261 0.429251
vn -0.620536 0.656261 0.429251
vn -0.620536 0.656261 0.429251
vn -0.620536 0.656261 0.429251
vn -0.620536 0.656261 0.429251
vn -0.620536 0.656261 0.429251
vn -0.620536 0.656261 0.429251
vn -0.620536 0.656261 0.429251
vn -0.620536 0.656261 0.429251
s off
g pCylinder4
usemtl initialShadingGroup
f 48/97/175 43/98/176 49/106/177 55/105/178
f 43/98/179 56/99/180 50/107/181 49/106/182
f 56/99/183 44/100/184 51/108/185 50/107/186
f 44/100/187 45/101/188 52/109/189 51/108/190
f 45/101/191 46/102/192 53/110/193 52/109/194
f 46/102/195 47/103/196 54/111/197 53/110/198
f 47/103/199 48/104/200 55/112/201 54/111/202
f 43/91/203 48/96/204 56/120/205
f 45/93/206 44/92/207 56/120/208
f 46/94/209 45/93/210 56/120/211
f 47/95/212 46/94/213 56/120/214
f 48/96/215 47/95/216 56/120/217
f 55/119/218 49/118/219 50/117/220
f 51/116/221 52/115/222 50/117/223
f 52/115/224 53/114/225 50/117/226
f 53/114/227 54/113/228 50/117/229
f 54/113/230 55/119/231 50/117/232
g default
v -0.008774 0.379740 -2.430477
v -0.226910 0.612152 -2.555173
v -0.388466 0.571793 -2.463794
v -0.420943 0.435994 -2.335019
v -0.299886 0.307015 -2.265818
v -0.116454 0.281980 -2.308301
v 0.529479 1.710964 -0.890896
v 0.480321 1.857905 -1.000765
v 0.311342 1.943376 -1.015592
v 0.149786 1.903017 -0.924214
v 0.117309 1.767218 -0.795439
v 0.238366 1.638239 -0.726237
v 0.421798 1.613204 -0.768720
v -0.057931 0.526681 -2.540345
vt 0.534769 0.003918
vt 0.343750 0.156250
vt 0.402580 0.278411
vt 0.534769 0.308582
vt 0.640776 0.224044
vt 0.640776 0.088456
vt 0.375000 0.312500
vt 0.410714 0.312500
vt 0.446429 0.312500
vt 0.482143 0.312500
vt 0.517857 0.312500
vt 0.553571 0.312500
vt 0.589286 0.312500
vt 0.625000 0.312500
vt 0.375000 0.688440
vt 0.410714 0.688440
vt 0.446429 0.688440
vt 0.482143 0.688440
vt 0.517857 0.688440
vt 0.553571 0.688440
vt 0.589286 0.688440
vt 0.625000 0.688440
vt 0.640776 0.775956
vt 0.534769 0.691418
vt 0.402580 0.721589
vt 0.343750 0.843750
vt 0.402580 0.965911
vt 0.534769 0.996082
vt 0.640776 0.911544
vt 0.402580 0.034089
vn 0.783107 -0.579024 0.226881
vn 0.783107 -0.579024 0.226881
vn 0.783107 -0.579024 0.226881
vn 0.783107 -0.579024 0.226881
vn 0.931481 0.041376 -0.361431
vn 0.931481 0.041376 -0.361431
vn 0.931481 0.041376 -0.361431
vn 0.931481 0.041376 -0.361431
vn 0.378430 0.630618 -0.677577
vn 0.378430 0.630618 -0.677577
vn 0.378430 0.630618 -0.677577
vn 0.378430 0.630618 -0.677577
vn -0.459586 0.744992 -0.483495
vn -0.459586 0.744992 -0.483495
vn -0.459586 0.744992 -0.483495
vn -0.459586 0.744992 -0.483495
vn -0.951524 0.298372 0.074670
vn -0.951524 0.298372 0.074670
vn -0.951524 0.298372 0.074670
vn -0.951524 0.298372 0.074670
vn -0.726945 -0.372929 0.576606
vn -0.726945 -0.372929 0.576606
vn -0.726945 -0.372929 0.576606
vn -0.726945 -0.372929 0.576606
vn 0.045038 -0.763406 0.644346
vn 0.045038 -0.763406 0.644346
vn 0.045038 -0.763406 0.644346
vn 0.045038 -0.763406 0.644346
vn -0.255669 -0.632328 -0.731297
vn -0.255669 -0.632328 -0.731297
vn -0.255669 -0.632328 -0.731297
vn -0.255668 -0.632328 -0.731297
vn -0.255668 -0.632328 -0.731297
vn -0.255668 -0.632328 -0.731297
vn -0.255668 -0.632328 -0.731297
vn -0.255668 -0.632328 -0.731297
vn -0.255668 -0.632328 -0.731297
vn -0.255668 -0.632328 -0.731297
vn -0.255668 -0.632328 -0.731297
vn -0.255668 -0.632328 -0.731297
vn -0.255668 -0.632328 -0.731297
vn -0.255668 -0.632328 -0.731297
vn -0.255668 -0.632328 -0.731297
vn 0.255668 0.632328 0.731297
vn 0.255668 0.632328 0.731297
vn 0.255668 0.632328 0.731297
vn 0.255668 0.632328 0.731297
vn 0.255668 0.632328 0.731297
vn 0.255668 0.632328 0.731297
vn 0.255668 0.632328 0.731297
vn 0.255668 0.632328 0.731297
vn 0.255668 0.632328 0.731297
vn 0.255668 0.632328 0.731297
vn 0.255668 0.632328 0.731297
vn 0.255668 0.632328 0.731297
vn 0.255668 0.632328 0.731297
vn 0.255668 0.632328 0.731297
vn 0.255668 0.632328 0.731297
s off
g pCylinder5
usemtl initialShadingGroup
f 62/127/233 57/128/234 63/136/235 69/135/236
f 57/128/237 70/129/238 64/137/239 63/136/240
f 70/129/241 58/130/242 65/138/243 64/137/244
f 58/130/245 59/131/246 66/139/247 65/138/248
f 59/131/249 60/132/250 67/140/251 66/139/252
f 60/132/253 61/133/254 68/141/255 67/140/256
f 61/133/257 62/134/258 69/142/259 68/141/260
f 57/121/261 62/126/262 70/150/263
f 59/123/264 58/122/265 70/150/266
f 60/124/267 59/123/268 70/150/269
f 61/125/270 60/124/271 70/150/272
f 62/126/273 61/125/274 70/150/275
f 69/149/276 63/148/277 64/147/278
f 65/146/279 66/145/280 64/147/281
f 66/145/282 67/144/283 64/147/284
f 67/144/285 68/143/286 64/147/287
f 68/143/288 69/149/289 64/147/290
g default
v 2.261666 0.147687 -0.107888
v 2.516112 0.316043 -0.263005
v 2.467157 0.307066 -0.446313
v 2.314659 0.224942 -0.524281
v 2.173452 0.131511 -0.438198
v 2.149868 0.097129 -0.252885
v 1.190347 1.949158 0.089999
v 1.353341 2.046584 0.085496
v 1.444793 2.117514 -0.065118
v 1.395839 2.108537 -0.248426
v 1.243341 2.026413 -0.326394
v 1.102134 1.932982 -0.240311
v 1.078549 1.898600 -0.054998
v 2.424660 0.245113 -0.112391
vt 0.534769 0.003918
vt 0.343750 0.156250
vt 0.402580 0.278411
vt 0.534769 0.308582
vt 0.640776 0.224044
vt 0.640776 0.088456
vt 0.375000 0.312500
vt 0.410714 0.312500
vt 0.446429 0.312500
vt 0.482143 0.312500
vt 0.517857 0.312500
vt 0.553571 0.312500
vt 0.589286 0.312500
vt 0.625000 0.312500
vt 0.375000 0.688440
vt 0.410714 0.688440
vt 0.446429 0.688440
vt 0.482143 0.688440
vt 0.517857 0.688440
vt 0.553571 0.688440
vt 0.589286 0.688440
vt 0.625000 0.688440
vt 0.640776 0.775956
vt 0.534769 0.691418
vt 0.402580 0.721589
vt 0.343750 0.843750
vt 0.402580 0.965911
vt 0.534769 0.996082
vt 0.640776 0.911544
vt 0.402580 0.034089
vn -0.628189 -0.443781 0.639091
vn -0.628189 -0.443781 0.639091
vn -0.628189 -0.443781 0.639091
vn -0.628189 -0.443781 0.639091
vn 0.068501 -0.068593 0.995290
vn 0.068501 -0.068593 0.995290
vn 0.068501 -0.068593 0.995290
vn 0.068501 -0.068593 0.995290
vn 0.713608 0.358246 0.602016
vn 0.713608 0.358246 0.602016
vn 0.713608 0.358246 0.602016
vn 0.713608 0.358246 0.602016
vn 0.821354 0.515319 -0.244589
vn 0.821354 0.515319 -0.244589
vn 0.821354 0.515319 -0.244589
vn 0.821354 0.515319 -0.244589
vn 0.310604 0.284346 -0.907013
vn 0.310604 0.284346 -0.907013
vn 0.310604 0.284346 -0.907013
vn 0.310604 0.284346 -0.907013
vn -0.434037 -0.160745 -0.886438
vn -0.434037 -0.160745 -0.886438
vn -0.434037 -0.160745 -0.886438
vn -0.434037 -0.160745 -0.886438
vn -0.851840 -0.484792 -0.198357
vn -0.851840 -0.484792 -0.198357
vn -0.851840 -0.484792 -0.198357
vn -0.851840 -0.484792 -0.198357
vn 0.508874 -0.855694 -0.093997
vn 0.508874 -0.855694 -0.093997
vn 0.508874 -0.855694 -0.093997
vn 0.508874 -0.855694 -0.093996
vn 0.508874 -0.855694 -0.093996
vn 0.508874 -0.855694 -0.093996
vn 0.508874 -0.855694 -0.093996
vn 0.508874 -0.855694 -0.093996
vn 0.508874 -0.855694 -0.093996
vn 0.508874 -0.855694 -0.093996
vn 0.508874 -0.855694 -0.093996
vn 0.508874 -0.855694 -0.093996
vn 0.508874 -0.855694 -0.093996
vn 0.508874 -0.855694 -0.093996
vn 0.508874 -0.855694 -0.093996
vn -0.508874 0.855694 0.093996
vn -0.508874 0.855694 0.093996
vn -0.508874 0.855694 0.093996
vn -0.508874 0.855694 0.093996
vn -0.508874 0.855694 0.093996
vn -0.508874 0.855694 0.093996
vn -0.508874 0.855694 0.093996
vn -0.508874 0.855694 0.093996
vn -0.508874 0.855694 0.093996
vn -0.508874 0.855694 0.093996
vn -0.508874 0.855694 0.093996
vn -0.508874 0.855694 0.093996
vn -0.508874 0.855694 0.093996
vn -0.508874 0.855694 0.093996
vn -0.508874 0.855694 0.093996
s off
g pCylinder6
usemtl initialShadingGroup
f 76/157/291 71/158/292 77/166/293 83/165/294
f 71/158/295 84/159/296 78/167/297 77/166/298
f 84/159/299 72/160/300 79/168/301 78/167/302
f 72/160/303 73/161/304 80/169/305 79/168/306
f 73/161/307 74/162/308 81/170/309 80/169/310
f 74/162/311 75/163/312 82/171/313 81/170/314
f 75/163/315 76/164/316 83/172/317 82/171/318
f 71/151/319 76/156/320 84/180/321
f 73/153/322 72/152/323 84/180/324
f 74/154/325 73/153/326 84/180/327
f 75/155/328 74/154/329 84/180/330
f 76/156/331 75/155/332 84/180/333
f 83/179/334 77/178/335 78/177/336
f 79/176/337 80/175/338 78/177/339
f 80/175/340 81/174/341 78/177/342
f 81/174/343 82/173/344 78/177/345
f 82/173/346 83/179/347 78/177/348
