# This file uses centimeters as units for non-parametric coordinates.

mtllib foamPlaneVersion2.mtl
g default
v -4.718351 0.321072 11.451262
v -2.003548 0.321072 11.451262
v 0.711258 0.321072 11.451262
v -7.433157 0.321072 8.736457
v -4.718351 0.321072 8.736457
v -2.003548 0.321072 8.736457
v 0.711258 0.321072 8.736457
v 3.426063 0.321072 8.736457
v -10.147962 0.321071 6.021652
v -7.433157 0.321072 6.021652
v -4.718351 0.321072 6.021652
v -2.003548 0.321072 6.021652
v 0.711258 0.321072 6.021652
v 3.426063 0.321072 6.021652
v 6.140867 0.321072 6.021652
v -10.147962 0.321071 3.306847
v -7.433157 0.321071 3.306847
v -4.718351 0.321072 3.306847
v -2.003548 0.321072 3.306847
v 0.711258 0.321072 3.306847
v 3.426063 0.321072 3.306847
v 6.140867 0.321072 3.306847
v 8.855673 0.321072 3.306847
v -10.147962 0.321072 0.592043
v -7.433157 0.321071 0.592043
v -4.718351 0.321071 0.592043
v -2.003548 0.321072 0.592043
v 0.711258 0.321072 0.592043
v 3.426063 0.321072 0.592043
v 6.140867 0.321072 0.592043
v 8.855673 0.321072 0.592043
v -10.147962 0.321072 -2.122763
v -7.433157 0.321072 -2.122763
v -4.718351 0.321072 -2.122763
v -2.003548 0.321071 -2.122763
v 0.711258 0.321071 -2.122763
v 3.426063 0.321072 -2.122763
v 6.140867 0.321072 -2.122763
v 8.855673 0.321072 -2.122763
v -10.147962 0.321072 -4.837566
v -7.433157 0.321072 -4.837566
v -4.718351 0.321072 -4.837566
v -2.003548 0.321072 -4.837566
v 0.711258 0.321072 -4.837566
v 3.426063 0.321071 -4.837566
v 6.140867 0.321071 -4.837566
v 8.855673 0.321072 -4.837566
v -7.433157 0.321072 -7.552372
v -4.718351 0.321072 -7.552372
v -2.003548 0.321072 -7.552372
v 0.711258 0.321072 -7.552372
v 3.426063 0.321072 -7.552372
v 6.140867 0.321072 -7.552372
v -4.718351 0.321071 -10.267177
v -2.003548 0.321072 -10.267177
v 0.711258 0.321072 -10.267177
v 3.426063 0.321072 -10.267177
v -2.003548 0.321072 -11.552026
v 0.711258 0.321072 -11.448230
v 6.140867 0.321072 -8.763989
v 7.481039 0.321072 -7.552372
v 9.993951 0.321072 -2.122763
v 9.684009 0.321072 0.592043
v 7.685295 0.321072 6.021652
v 6.140867 0.321072 8.053012
v 5.305979 0.321072 8.736457
v 3.426063 0.321072 10.240041
v 1.425469 0.321072 11.451262
v 0.711258 0.321072 12.001918
v -2.003548 0.321072 12.756231
v -4.718351 0.321072 12.427959
v -6.664934 0.321072 11.451262
v -7.433157 0.321072 11.065809
v -9.573833 0.321072 8.736457
v -10.147962 0.321072 7.372448
v -10.818591 0.321072 6.021652
v -11.237433 0.321071 3.306847
v -11.861887 0.321071 0.592043
v -11.643249 0.321072 -2.122763
v -11.030947 0.321072 -4.837566
v -10.147962 0.321072 -6.679222
v -9.395946 0.321072 -7.552372
v -7.433157 0.321072 -9.557937
v -5.876701 0.321071 -10.267177
v -4.718351 0.321072 -10.791393
v 8.187760 0.321072 5.331276
v 8.222220 0.321072 -6.497400
vt 0.400000 0.100000
vt 0.500000 0.100000
vt 0.600000 0.100000
vt 0.300000 0.200000
vt 0.400000 0.200000
vt 0.500000 0.200000
vt 0.600000 0.200000
vt 0.700000 0.200000
vt 0.200000 0.300000
vt 0.300000 0.300000
vt 0.400000 0.300000
vt 0.500000 0.300000
vt 0.600000 0.300000
vt 0.700000 0.300000
vt 0.800000 0.300000
vt 0.200000 0.400000
vt 0.300000 0.400000
vt 0.400000 0.400000
vt 0.500000 0.400000
vt 0.600000 0.400000
vt 0.700000 0.400000
vt 0.800000 0.400000
vt 0.900000 0.400000
vt 0.200000 0.500000
vt 0.300000 0.500000
vt 0.400000 0.500000
vt 0.500000 0.500000
vt 0.600000 0.500000
vt 0.700000 0.500000
vt 0.800000 0.500000
vt 0.900000 0.500000
vt 0.200000 0.600000
vt 0.300000 0.600000
vt 0.400000 0.600000
vt 0.500000 0.600000
vt 0.600000 0.600000
vt 0.700000 0.600000
vt 0.800000 0.600000
vt 0.900000 0.600000
vt 0.200000 0.700000
vt 0.300000 0.700000
vt 0.400000 0.700000
vt 0.500000 0.700000
vt 0.600000 0.700000
vt 0.700000 0.700000
vt 0.800000 0.700000
vt 0.900000 0.700000
vt 0.300000 0.800000
vt 0.400000 0.800000
vt 0.500000 0.800000
vt 0.600000 0.800000
vt 0.700000 0.800000
vt 0.800000 0.800000
vt 0.400000 0.900000
vt 0.500000 0.900000
vt 0.600000 0.900000
vt 0.700000 0.900000
vt 0.500000 0.947327
vt 0.600000 0.943504
vt 0.800000 0.844630
vt 0.849365 0.800000
vt 0.941929 0.600000
vt 0.930512 0.500000
vt 0.856889 0.300000
vt 0.800000 0.225175
vt 0.769247 0.200000
vt 0.700000 0.144615
vt 0.626308 0.100000
vt 0.600000 0.079716
vt 0.500000 0.051931
vt 0.400000 0.064023
vt 0.328297 0.100000
vt 0.300000 0.114198
vt 0.221148 0.200000
vt 0.200000 0.250243
vt 0.175297 0.300000
vt 0.159869 0.400000
vt 0.136867 0.500000
vt 0.144921 0.600000
vt 0.167475 0.700000
vt 0.200000 0.767837
vt 0.227701 0.800000
vt 0.300000 0.873875
vt 0.357332 0.900000
vt 0.400000 0.919309
vt 0.875397 0.325430
vt 0.876667 0.761140
vn 0.000000 1.000000 0.000000
vn 0.000000 1.000000 0.000000
vn 0.000000 1.000000 0.000000
vn 0.000000 1.000000 0.000000
vn 0.000000 1.000000 0.000000
vn 0.000000 1.000000 0.000000
vn -0.000000 1.000000 -0.000000
vn -0.000000 1.000000 -0.000000
vn -0.000000 1.000000 -0.000000
vn 0.000000 1.000000 0.000000
vn 0.000000 1.000000 0.000000
vn 0.000000 1.000000 0.000000
vn 0.000000 1.000000 0.000000
vn 0.000000 1.000000 -0.000000
vn -0.000000 1.000000 -0.000000
vn 0.000000 1.000000 0.000000
vn -0.000000 1.000000 -0.000000
vn -0.000000 1.000000 -0.000000
vn 0.000000 1.000000 0.000000
vn 0.000000 1.000000 0.000000
vn 0.000000 1.000000 0.000000
vn 0.000000 1.000000 0.000000
vn 0.000000 1.000000 0.000000
vn 0.000000 1.000000 0.000000
vn -0.000000 1.000000 0.000000
vn -0.000000 1.000000 -0.000000
vn -0.000000 1.000000 -0.000000
vn -0.000000 1.000000 -0.000000
vn 0.000000 1.000000 0.000000
vn 0.000000 1.000000 0.000000
vn 0.000000 1.000000 0.000000
vn 0.000000 1.000000 0.000000
vn 0.000000 1.000000 0.000000
vn 0.000000 1.000000 0.000000
vn 0.000000 1.000000 0.000000
vn -0.000000 1.000000 -0.000000
vn -0.000000 1.000000 -0.000000
vn -0.000000 1.000000 -0.000000
vn -0.000000 1.000000 -0.000000
vn 0.000000 1.000000 0.000000
vn 0.000000 1.000000 0.000000
vn 0.000000 1.000000 0.000000
vn 0.000000 1.000000 0.000000
vn 0.000000 1.000000 0.000000
vn 0.000000 1.000000 0.000000
vn -0.000000 1.000000 -0.000000
vn -0.000000 1.000000 -0.000000
vn -0.000000 1.000000 -0.000000
vn 0.000000 1.000000 -0.000000
vn -0.000000 1.000000 -0.000000
vn 0.000000 1.000000 0.000000
vn 0.000000 1.000000 0.000000
vn -0.000000 1.000000 0.000000
vn -0.000000 1.000000 -0.000000
vn -0.000000 1.000000 -0.000000
vn 0.000000 1.000000 0.000000
vn 0.000000 1.000000 0.000000
vn 0.000000 1.000000 0.000000
vn -0.000000 1.000000 0.000000
vn 0.000000 1.000000 0.000000
vn -0.000000 1.000000 0.000000
vn -0.000000 1.000000 0.000000
vn 0.000000 1.000000 0.000000
vn 0.000000 1.000000 0.000000
vn 0.000000 1.000000 0.000000
vn 0.000000 1.000000 0.000000
vn 0.000000 1.000000 0.000000
vn 0.000000 1.000000 0.000000
vn 0.000000 1.000000 0.000000
vn 0.000000 1.000000 0.000000
vn 0.000000 1.000000 0.000000
vn 0.000000 1.000000 0.000000
vn 0.000000 1.000000 0.000000
vn 0.000000 1.000000 0.000000
vn 0.000000 1.000000 0.000000
vn -0.000000 1.000000 -0.000000
vn -0.000000 1.000000 -0.000000
vn 0.000000 1.000000 -0.000000
vn -0.000000 1.000000 0.000000
vn -0.000000 1.000000 0.000000
vn -0.000000 1.000000 0.000000
vn 0.000000 1.000000 0.000000
vn 0.000000 1.000000 0.000000
vn 0.000000 1.000000 0.000000
vn 0.000000 1.000000 -0.000000
vn 0.000000 1.000000 -0.000000
vn -0.000000 1.000000 0.000000
s 1
g pPlane1
usemtl initialShadingGroup
f 1/1/1 2/2/2 6/6/3 5/5/4
f 2/2/2 3/3/5 7/7/6 6/6/3
f 4/4/7 5/5/4 11/11/8 10/10/9
f 5/5/4 6/6/3 12/12/10 11/11/8
f 6/6/3 7/7/6 13/13/11 12/12/10
f 7/7/6 8/8/12 14/14/13 13/13/11
f 9/9/14 10/10/9 17/17/15 16/16/16
f 10/10/9 11/11/8 18/18/17 17/17/15
f 11/11/8 12/12/10 19/19/18 18/18/17
f 12/12/10 13/13/11 20/20/19 19/19/18
f 13/13/11 14/14/13 21/21/20 20/20/19
f 14/14/13 15/15/21 22/22/22 21/21/20
f 16/16/16 17/17/15 25/25/23 24/24/24
f 17/17/15 18/18/17 26/26/25 25/25/23
f 18/18/17 19/19/18 27/27/26 26/26/25
f 19/19/18 20/20/19 28/28/27 27/27/26
f 20/20/19 21/21/20 29/29/28 28/28/27
f 21/21/20 22/22/22 30/30/29 29/29/28
f 22/22/22 23/23/30 31/31/31 30/30/29
f 24/24/24 25/25/23 33/33/32 32/32/33
f 25/25/23 26/26/25 34/34/34 33/33/32
f 26/26/25 27/27/26 35/35/35 34/34/34
f 27/27/26 28/28/27 36/36/36 35/35/35
f 28/28/27 29/29/28 37/37/37 36/36/36
f 29/29/28 30/30/29 38/38/38 37/37/37
f 30/30/29 31/31/31 39/39/39 38/38/38
f 32/32/33 33/33/32 41/41/40 40/40/41
f 33/33/32 34/34/34 42/42/42 41/41/40
f 34/34/34 35/35/35 43/43/43 42/42/42
f 35/35/35 36/36/36 44/44/44 43/43/43
f 36/36/36 37/37/37 45/45/45 44/44/44
f 37/37/37 38/38/38 46/46/46 45/45/45
f 38/38/38 39/39/39 47/47/47 46/46/46
f 41/41/40 42/42/42 49/49/48 48/48/49
f 42/42/42 43/43/43 50/50/50 49/49/48
f 43/43/43 44/44/44 51/51/51 50/50/50
f 44/44/44 45/45/45 52/52/52 51/51/51
f 45/45/45 46/46/46 53/53/53 52/52/52
f 49/49/48 50/50/50 55/55/54 54/54/55
f 50/50/50 51/51/51 56/56/56 55/55/54
f 51/51/51 52/52/52 57/57/57 56/56/56
f 55/55/54 56/56/56 59/59/58 58/58/59
f 56/56/56 57/57/57 59/59/58
f 52/52/52 53/53/53 60/60/60 57/57/57
f 53/53/53 61/61/61 60/60/60
f 46/46/46 47/47/47 87/87/62 61/61/61 53/53/53
f 39/39/39 62/62/63 47/47/47
f 31/31/31 63/63/64 62/62/63 39/39/39
f 23/23/30 63/63/64 31/31/31
f 15/15/21 64/64/65 86/86/66 23/23/30 22/22/22
f 65/65/67 64/64/65 15/15/21
f 8/8/12 66/66/68 65/65/67 15/15/21 14/14/13
f 67/67/69 66/66/68 8/8/12
f 3/3/5 68/68/70 67/67/69 8/8/12 7/7/6
f 69/69/71 68/68/70 3/3/5
f 70/70/72 69/69/71 3/3/5 2/2/2
f 71/71/73 70/70/72 2/2/2 1/1/1
f 72/72/74 71/71/73 1/1/1
f 73/73/75 72/72/74 1/1/1 5/5/4 4/4/7
f 74/74/76 73/73/75 4/4/7
f 75/75/77 74/74/76 4/4/7 10/10/9 9/9/14
f 76/76/78 75/75/77 9/9/14
f 77/77/79 76/76/78 9/9/14 16/16/16
f 78/78/80 77/77/79 16/16/16 24/24/24
f 79/79/81 78/78/80 24/24/24 32/32/33
f 80/80/82 79/79/81 32/32/33 40/40/41
f 81/81/83 80/80/82 40/40/41
f 40/40/41 41/41/40 48/48/49 82/82/84 81/81/83
f 83/83/85 82/82/84 48/48/49
f 48/48/49 49/49/48 54/54/55 84/84/86 83/83/85
f 85/85/87 84/84/86 54/54/55
f 54/54/55 55/55/54 58/58/59 85/85/87
